<?xml version="1.0" encoding="utf-8"?>
<!-- Generator: Adobe Illustrator 17.1.0, SVG Export Plug-In . SVG Version: 6.00 Build 0)  -->
<!DOCTYPE svg PUBLIC "-//W3C//DTD SVG 1.1//EN" "http://www.w3.org/Graphics/SVG/1.1/DTD/svg11.dtd">
<svg version="1.1" id="Layer_1" xmlns="http://www.w3.org/2000/svg" xmlns:xlink="http://www.w3.org/1999/xlink" x="0px" y="0px"
	 viewBox="0 0 639.698 123.294" style="enable-background:new 0 0 639.698 123.294;" xml:space="preserve">
<g>
	<path style="fill:#FFFFFF;" d="M642.599,21.804H-1.89c-2.508,0-4.541,2.033-4.541,4.541v48.925V99.08
		c0,1.022,0.345,2.015,0.979,2.817c14.508,18.348,21.87,20.47,26.146,20.47c5.427,0,11.77-4.124,19.762-12.905
		c10.971,12.301,16.959,13.832,20.596,13.832c3.605,0,9.532-1.504,20.365-13.577c7.884,8.606,14.154,12.65,19.528,12.65
		c5.425,0,11.769-4.125,19.762-12.905c10.971,12.301,16.958,13.832,20.596,13.832c3.669,0,9.716-1.558,20.827-14.092
		c10.607,11.705,16.439,13.164,19.995,13.164c5.426,0,11.769-4.124,19.762-12.905c10.971,12.301,16.958,13.832,20.595,13.832
		c3.606,0,9.533-1.504,20.366-13.577c7.884,8.606,14.154,12.65,19.528,12.65c5.425,0,11.768-4.124,19.762-12.905
		c10.969,12.301,16.957,13.832,20.596,13.832c3.543,0,9.355-1.45,19.908-13.07c7.671,8.26,13.791,12.142,19.059,12.142
		c3.523,0,9.295-1.432,19.758-12.907c10.973,12.304,16.961,13.835,20.598,13.835c3.606,0,9.534-1.503,20.366-13.576
		c7.883,8.606,14.153,12.649,19.527,12.649c5.425,0,11.769-4.124,19.762-12.905c10.969,12.301,16.957,13.832,20.595,13.832
		c3.67,0,9.715-1.558,20.827-14.092c10.605,11.705,16.438,13.164,19.995,13.164c5.426,0,11.769-4.125,19.762-12.905
		c10.972,12.301,16.959,13.832,20.596,13.832c3.606,0,9.535-1.503,20.365-13.576c7.885,8.605,14.155,12.649,19.529,12.649
		c5.425,0,11.768-4.124,19.761-12.905c10.969,12.301,16.957,13.832,20.596,13.832c5.994,0,13.085-5.022,22.314-15.805
		c0.704-0.823,1.091-1.87,1.091-2.953v-32.06V26.345C647.14,23.837,645.107,21.804,642.599,21.804"/>
	<path style="fill:#D25437;" d="M-1.89,26.345v48.925V99.08c7.017,8.875,16.244,18.746,22.584,18.746
		c5.529,0,13.253-7.506,19.793-15.311c6.697,8.127,14.819,16.238,20.565,16.238c5.68,0,13.682-7.928,20.333-15.96
		c6.49,7.704,14.098,15.033,19.56,15.033c5.528,0,13.253-7.506,19.794-15.311c6.696,8.127,14.818,16.238,20.564,16.238
		c5.813,0,14.055-8.299,20.794-16.518c6.589,7.904,14.434,15.59,20.028,15.59c5.528,0,13.253-7.506,19.793-15.311
		c6.696,8.127,14.817,16.238,20.564,16.238c5.681,0,13.682-7.928,20.334-15.96c6.489,7.704,14.098,15.033,19.559,15.033
		c5.529,0,13.253-7.506,19.793-15.311c6.695,8.127,14.819,16.238,20.565,16.238c5.551,0,13.318-7.568,19.874-15.408
		c6.385,7.498,13.761,14.48,19.093,14.48c5.525,0,13.252-7.506,19.792-15.311c6.696,8.127,14.818,16.238,20.565,16.238
		c5.681,0,13.683-7.928,20.334-15.96c6.489,7.704,14.097,15.033,19.559,15.033c5.528,0,13.253-7.506,19.794-15.311
		c6.695,8.127,14.819,16.238,20.564,16.238c5.812,0,14.055-8.299,20.794-16.518c6.588,7.904,14.435,15.59,20.028,15.59
		c5.527,0,13.253-7.506,19.793-15.311c6.697,8.127,14.819,16.238,20.565,16.238c5.682,0,13.683-7.928,20.333-15.96
		c6.49,7.704,14.098,15.033,19.56,15.033c5.529,0,13.252-7.506,19.793-15.311c6.695,8.127,14.819,16.238,20.564,16.238
		c5.269,0,12.532-6.819,18.863-14.216v-32.06V26.345H-1.89"/>
	<path style="fill:#F7EFE5;" d="M242.659,26.345h-40.872v76.321l0.13-0.152c6.696,8.127,14.817,16.238,20.564,16.238
		c5.638,0,13.557-7.806,20.178-15.775V26.345"/>
	<path style="fill:#F7EFE5;" d="M322.586,26.345h-40.418v76.17c6.695,8.127,14.818,16.237,20.564,16.237
		c5.544,0,13.302-7.553,19.854-15.384V26.345"/>
	<path style="fill:#F7EFE5;" d="M162.278,26.345h-41.78v76.452c0.08-0.094,0.161-0.188,0.24-0.283
		c6.696,8.127,14.818,16.238,20.564,16.238c5.813,0,14.055-8.299,20.794-16.518l0.182,0.215V26.345"/>
	<path style="fill:#F7EFE5;" d="M81.443,26.345H40.117v76.604c0.122-0.145,0.248-0.289,0.37-0.435
		c6.697,8.127,14.819,16.238,20.565,16.238c5.68,0,13.682-7.928,20.333-15.96l0.058,0.067V26.345"/>
	<path style="fill:#F7EFE5;" d="M563.957,26.345h-41.326v76.51c0.096-0.114,0.194-0.227,0.29-0.341
		c6.697,8.127,14.819,16.238,20.565,16.238c5.682,0,13.683-7.928,20.333-15.96l0.138,0.162V26.345"/>
	<path style="fill:#F7EFE5;" d="M402.286,26.345h-40.872v76.26l0.077-0.091c6.696,8.127,14.818,16.238,20.565,16.238
		c5.652,0,13.6-7.847,20.23-15.837V26.345"/>
	<path style="fill:#F7EFE5;" d="M603.012,26.345v76.357l0.16-0.188c6.695,8.127,14.819,16.238,20.564,16.238
		c5.269,0,12.532-6.819,18.863-14.216v-32.06V26.345H603.012"/>
	<path style="fill:#F7EFE5;" d="M483.122,26.345h-41.553v76.374l0.174-0.205c6.695,8.127,14.819,16.238,20.564,16.238
		c5.812,0,14.055-8.299,20.794-16.518l0.021,0.025V26.345"/>
	<polyline style="fill:#E7E8E9;" points="-1.89,25.887 642.599,25.887 642.599,26.345 603.012,26.345 563.957,26.345 
		522.631,26.345 483.122,26.345 441.569,26.345 402.286,26.345 361.415,26.345 322.586,26.345 282.169,26.345 242.659,26.345 
		201.788,26.345 162.278,26.345 120.498,26.345 81.443,26.345 40.117,26.345 -1.89,26.345 -1.89,55.658 -1.89,25.887 	"/>
	<path style="fill:#C14D32;" d="M563.957,26.345v29.312h39.055V26.345H563.957 M483.122,26.345v29.312h39.509V26.345H483.122
		 M402.286,26.345v29.312h39.282V26.345H402.286 M322.586,26.345v29.312h38.828V26.345H322.586 M242.659,26.345v29.312h39.509
		V26.345H242.659 M162.278,26.345v29.312h39.509V26.345H162.278 M81.443,26.345v29.312h39.055V26.345H81.443 M-1.89,26.345v29.312
		h42.007V26.345H-1.89"/>
	<polyline style="fill:#E0DAD1;" points="201.788,26.345 242.659,26.345 242.659,55.658 201.788,55.658 201.788,26.345 	"/>
	<polyline style="fill:#E0DAD1;" points="282.169,26.345 322.586,26.345 322.586,55.658 282.169,55.658 282.169,26.345 	"/>
	<polyline style="fill:#E0DAD1;" points="120.498,26.345 162.278,26.345 162.278,55.658 120.498,55.658 120.498,26.345 	"/>
	<polyline style="fill:#E0DAD1;" points="40.117,26.345 81.443,26.345 81.443,55.658 40.117,55.658 40.117,26.345 	"/>
	<polyline style="fill:#E0DAD1;" points="522.631,26.345 563.957,26.345 563.957,55.658 522.631,55.658 522.631,26.345 	"/>
	<polyline style="fill:#E0DAD1;" points="361.415,26.345 402.286,26.345 402.286,55.658 361.415,55.658 361.415,26.345 	"/>
	<polyline style="fill:#E0DAD1;" points="603.012,26.345 642.599,26.345 642.599,55.658 603.012,55.658 603.012,26.345 	"/>
	<polyline style="fill:#E0DAD1;" points="441.569,26.345 483.122,26.345 483.122,55.658 441.569,55.658 441.569,26.345 	"/>
</g>
<rect x="-6.431" y="0" style="fill:#C14D32;stroke:#C14D32;stroke-width:2;stroke-miterlimit:10;" width="653.533" height="25.887"/>
</svg>
