<?xml version="1.0" encoding="utf-8"?>
<!-- Generator: Adobe Illustrator 17.1.0, SVG Export Plug-In . SVG Version: 6.00 Build 0)  -->
<!DOCTYPE svg PUBLIC "-//W3C//DTD SVG 1.1//EN" "http://www.w3.org/Graphics/SVG/1.1/DTD/svg11.dtd">
<svg version="1.1" id="Layer_1" xmlns="http://www.w3.org/2000/svg" xmlns:xlink="http://www.w3.org/1999/xlink" x="0px" y="0px"
	 viewBox="0 0 1064.322 1063.333" style="enable-background:new 0 0 1064.322 1063.333;" xml:space="preserve">
<g>
	<polygon style="fill:#8C9E74;" points="0,505 58.832,434.292 24.592,348.908 102.459,299.926 96.428,208.136 185.625,185.623 
		208.138,96.426 299.928,102.456 348.912,24.592 434.295,58.83 505.002,0 575.709,58.83 661.092,24.592 710.076,102.456 
		801.864,96.426 824.379,185.623 913.576,208.138 907.545,299.926 985.41,348.91 951.172,434.292 1010.002,505 951.172,575.707 
		985.41,661.089 907.545,710.073 913.576,801.862 824.379,824.379 801.861,913.576 710.076,907.544 661.092,985.408 575.709,951.17 
		505.002,1010 434.295,951.17 348.91,985.408 299.928,907.544 208.138,913.574 185.623,824.377 96.428,801.862 102.456,710.073 
		24.592,661.089 58.832,575.707 	"/>
	<g>
		<polygon style="fill:#D15438;" points="170.982,839.017 152.124,834.256 150.748,855.195 176.721,861.751 		"/>
		<polygon style="fill:#D15438;" points="994.568,373.832 971.616,431.069 1009.778,476.935 1039.73,402.244 		"/>
		<polygon style="fill:#D15438;" points="925.981,290.521 964.4,314.689 967.896,261.472 928.541,251.536 		"/>
		<polygon style="fill:#D15438;" points="839.019,170.983 863.075,177.055 856.185,149.759 834.029,151.215 		"/>
		<polygon style="fill:#D15438;" points="290.522,925.977 252.754,928.459 262.459,966.907 314.134,963.511 		"/>
		<polygon style="fill:#D15438;" points="1005.492,629.041 1064.322,558.333 1026.539,512.921 971.616,578.93 1007.431,668.24 
			925.981,719.479 932.287,815.473 839.019,839.019 815.473,932.287 719.482,925.979 668.242,1007.429 578.932,971.614 
			514.01,1025.632 559.322,1063.333 630.03,1004.503 715.412,1038.741 764.396,960.877 856.183,966.909 878.7,877.713 
			967.896,855.195 961.866,763.407 1039.73,714.423 		"/>
		<polygon style="fill:#D15438;" points="431.072,971.614 375.119,994.052 403.232,1038.741 476.458,1009.377 		"/>
	</g>
</g>
<g>
	<g>
		<path style="fill:#FFFFFF;" d="M678.164,857.903c-45.061,28.648-148.34,32.455-208.301,17.775
			c4.219,9.473,10.265,18.948,18.105,21.105c16.756,4.603,53.498,4.336,86.005,2.402c32.504-1.93,95.826-10.74,109.518-24.236
			c6.548-6.459,11.016-18.791,13.896-29.913C691.226,849.407,684.822,853.672,678.164,857.903z"/>
	</g>
	<path style="fill:#D15438;" d="M294.478,590.866c-4.136-27.81,106.122-67.246,246.268-88.075
		c140.142-20.836,257.101-15.176,261.232,12.628c4.133,27.811-106.119,67.246-246.267,88.075
		C415.572,624.329,298.615,618.676,294.478,590.866z"/>
	<path style="fill:#FFFFFF;" d="M809.457,512.479c-3.711-22.129-77.17-48.65-300.57-12.093
		c-202.654,33.167-225.89,76.834-224.501,92.102c2.676,29.42,17.997,88.237,44.499,139.112
		c28.155,54.058,64.431,93.78,107.799,121.504c43.366,27.717,185.788,29.872,240.948-5.198
		c57.101-36.3,95.806-75.112,119.146-156.857C815.341,626.046,813.357,535.723,809.457,512.479z M294.299,608.34
		c14.16,9.565,30.81,14.505,49.24,16.146c7.404,71.202,38.739,139.357,76.511,206.687
		C361.376,780.584,317.897,708.509,294.299,608.34z M790.757,679.058c-26.79,98.527-70.421,129.369-70.421,129.369
		s28.56-50.408,43.869-137.986c11.381-65.096-4.782-104.989-4.782-104.989c19.227-4.941,33.188-14.1,43.889-25.866
		C803.312,539.585,807.656,616.901,790.757,679.058z"/>
	<path style="fill:#FFFFFF;" d="M878.318,538.425c-5.554-4.43-17.565-11.546-39.856-14.646c-23.8-3.312-53.324,1.002-53.324,1.002
		s21.962,16.047,26.378,11.191c0,0-5.479,21.997-5.486,27.088c22.207-16.914,55.467-18.544,68.199-2.812
		c12.526,15.486,10.716,40.564-8.919,69.256c-17.564,25.66-53.566,56.422-77.93,68.446c-4.399,13.691-9.087,25.877-13.867,36.658
		c1.293-0.439,2.641-0.925,4.06-1.493c42.058-16.749,119.913-81.693,124.646-142.045
		C904.56,561.269,893.563,545.646,878.318,538.425z"/>
	<path style="fill:#FFFFFF;" d="M866.806,564.718c-7.823-9.668-24.295-12.031-40.296-7.685
		c12.225,5.582,22.553,18.029,10.571,44.039c-8.379,18.189-25.071,33.617-36.799,42.873c-1.827,11.836-4.208,23.73-7.303,35.112
		c-0.771,2.828-1.559,5.591-2.354,8.312c21.803-11.353,52.836-38.11,68.179-60.523C876.421,601.104,878.045,578.606,866.806,564.718
		z"/>
	<g>
		<path style="fill:#42210B;" d="M262.871,469.583c0.842,0.106,1.66,0.287,2.428,0.547c5.52,1.889,6.491,6.981,9.9,10.929
			c3.681,4.258,9.682,7.94,10.265,14.076c0.948,9.906-13.276,3.61-17.539,2.36c-7.793-2.285-15.896-5.425-18.949-13.743
			C245.623,474.618,253.83,468.472,262.871,469.583z"/>
		<path style="fill:#42210B;" d="M301.083,501.944c-1.804-2.066-2.855-4.51-1.626-7.438c1.975-4.7,9.412-4.754,12.976-1.79
			c4.032,3.353,2.761,8.778,4.833,13.049c1.3,2.685,5.425,8.272-0.337,8.741c-4.438,0.358-7.341-5.503-10.36-7.857
			C304.869,505.321,302.685,503.782,301.083,501.944z"/>
		<path style="fill:#42210B;" d="M304.604,468.789c0.122-2.457,1.573-5.052,4.323-4.829c5.057,0.404,9.477,8.859,6.988,13.098
			C311.781,484.084,304.384,473.301,304.604,468.789z"/>
	</g>
	<g>
		<path style="fill:#42210B;" d="M491.254,551.312c-35.737,4.905-69.544,11.042-100.034,17.917
			c-7.741-0.744-14.785-2.383-25.706-6.111c-17.218-5.877-18.074-24.906-20.295-41.085c-2.211-16.183,5.102-23.359,12.745-32.821
			c7.647-9.457,37.763-30.525,9.863-44.434c-27.905-13.912-46.3,23.286-41.059,45.187c5.234,21.908,6.645,31.337-7.845,39.803
			c-14.49,8.466-37.807-12.928-57.693-16.573c-19.883-3.642-29.434,12.602-27.932,23.839c1.504,11.239,13.077,16.057,42.41,11.782
			c29.341-4.275,31.806,21.849,25.673,38.472c-1.621,4.375-5.054,7.216-4.112,9.446c0.979,2.318,3.67,4.078,7.207,5.591
			c5.334,2.96,12.686,5.451,21.779,7.465c0.012,0.005,0.02,0.009,0.031,0.014c44.65,9.876,131.35,8.273,229.425-6.309
			c77.009-11.443,144.993-28.507,189.933-46.175C718.589,537.671,613.88,534.481,491.254,551.312z"/>
	</g>
	<g>
		<g>
			<path style="fill:#FFFFFF;" d="M399.457,296.686c1.658,1.599,1.276,5.03,0.376,10.442c-0.921,5.393-2.633,13.031-3.931,22.209
				c-0.609,4.492-1.172,9.636-0.76,13.498c0.191,2.081,0.586,3.982,1.185,5.6c0.601,1.63,1.362,2.983,2.415,4.359
				c2.022,2.715,5.774,5.87,11.193,9.497l18.427,12.14c6.63,4.473,13.368,9.366,19.597,15.201
				c6.204,5.811,11.968,12.7,15.972,20.694c4.055,7.945,5.981,16.862,5.793,24.744c-0.148,8.436-2.37,15.03-4.599,20.358
				c-2.29,5.355-4.799,9.609-7.123,13.171c-2.337,3.548-4.517,6.378-6.449,8.605c-3.872,4.409-6.765,6.584-8.956,5.954
				c-2.177-0.622-3.29-4.489-2.958-10.647c0.227-6.1,2.072-14.466,3.09-23.372c0.486-4.427,0.586-8.911-0.236-12.446
				c-0.833-4.049-2.402-7.758-4.987-11.515c-2.571-3.754-6.275-7.589-10.982-11.479c-4.701-3.9-10.334-7.807-16.559-11.994
				c-3.111-2.104-6.3-4.234-9.531-6.493c-3.075-2.164-6.206-4.36-9.455-6.855c-3.231-2.489-6.554-5.257-9.748-8.56
				c-3.184-3.292-6.246-7.183-8.603-11.612c-2.379-4.403-3.945-9.27-4.625-13.874c-0.7-4.622-0.592-8.949-0.106-12.829
				c0.493-3.991,1.438-7.546,2.444-10.582c1.013-3.088,2.157-5.853,3.337-8.436c4.758-10.24,10.273-17.513,15.15-21.884
				C393.717,296.183,397.866,295.117,399.457,296.686z"/>
		</g>
		<g>
			<path style="fill:#FFFFFF;" d="M474.186,280.078c1.658,1.6,1.276,5.03,0.376,10.442c-0.92,5.393-2.633,13.032-3.931,22.209
				c-0.609,4.492-1.172,9.636-0.759,13.499c0.19,2.081,0.586,3.982,1.185,5.599c0.602,1.63,1.363,2.984,2.415,4.359
				c2.022,2.715,5.775,5.868,11.194,9.497l18.426,12.14c6.63,4.475,13.368,9.366,19.597,15.199
				c6.204,5.814,11.969,12.7,15.973,20.697c4.054,7.944,5.981,16.861,5.792,24.744c-0.147,8.435-2.37,15.03-4.599,20.357
				c-2.29,5.356-4.798,9.609-7.122,13.171c-2.338,3.548-4.518,6.378-6.45,8.605c-3.871,4.41-6.765,6.584-8.956,5.955
				c-2.177-0.623-3.29-4.49-2.958-10.646c0.227-6.101,2.072-14.467,3.091-23.373c0.485-4.427,0.586-8.91-0.237-12.445
				c-0.833-4.05-2.402-7.759-4.986-11.515c-2.572-3.755-6.276-7.589-10.983-11.48c-4.7-3.899-10.334-7.806-16.559-11.994
				c-3.111-2.103-6.3-4.231-9.531-6.493c-3.074-2.164-6.206-4.359-9.455-6.855c-3.231-2.489-6.554-5.256-9.748-8.557
				c-3.184-3.295-6.246-7.186-8.603-11.615c-2.378-4.402-3.945-9.27-4.624-13.873c-0.701-4.623-0.593-8.95-0.106-12.83
				c0.492-3.991,1.436-7.546,2.443-10.579c1.014-3.091,2.157-5.855,3.338-8.438c4.757-10.243,10.273-17.514,15.15-21.884
				C468.446,279.574,472.596,278.509,474.186,280.078z"/>
		</g>
		<g>
			<path style="fill:#FFFFFF;" d="M549.438,257.875c1.658,1.6,1.276,5.03,0.376,10.443c-0.921,5.393-2.633,13.031-3.931,22.209
				c-0.609,4.492-1.172,9.636-0.76,13.498c0.191,2.081,0.586,3.982,1.185,5.599c0.601,1.63,1.362,2.984,2.415,4.36
				c2.023,2.715,5.775,5.868,11.193,9.496l18.427,12.14c6.63,4.476,13.368,9.367,19.597,15.2
				c6.204,5.813,11.968,12.699,15.972,20.696c4.055,7.945,5.982,16.862,5.793,24.744c-0.148,8.436-2.37,15.03-4.599,20.358
				c-2.29,5.355-4.799,9.609-7.123,13.17c-2.337,3.549-4.518,6.378-6.449,8.604c-3.872,4.41-6.765,6.585-8.956,5.955
				c-2.177-0.623-3.29-4.49-2.958-10.647c0.228-6.1,2.072-14.466,3.09-23.372c0.486-4.428,0.586-8.911-0.236-12.446
				c-0.833-4.049-2.402-7.758-4.987-11.515c-2.571-3.754-6.275-7.589-10.982-11.48c-4.701-3.9-10.334-7.807-16.559-11.995
				c-3.111-2.103-6.3-4.231-9.531-6.493c-3.075-2.163-6.206-4.359-9.455-6.855c-3.231-2.488-6.554-5.256-9.748-8.557
				c-3.184-3.294-6.246-7.186-8.603-11.614c-2.379-4.403-3.945-9.271-4.625-13.874c-0.7-4.622-0.592-8.949-0.106-12.83
				c0.493-3.99,1.438-7.545,2.444-10.579c1.013-3.09,2.157-5.854,3.337-8.438c4.758-10.243,10.273-17.513,15.15-21.884
				C543.697,257.372,547.847,256.307,549.438,257.875z"/>
		</g>
	</g>
</g>
<g>
	<path style="fill:#FFFFFF;" d="M108.891,597.362c-2.095-2.911-3.33-5.938-3.707-9.084c-0.142-1.172-0.165-2.372-0.07-3.602
		c-0.071-0.368-0.126-0.714-0.165-1.034c-0.473-3.944,0.291-6.969,2.293-9.075c1.526-1.589,3.625-2.544,6.298-2.865
		c0.318-0.038,0.649-0.063,0.996-0.079c0.238-0.028,0.494-0.032,0.764-0.011c1.554-0.023,2.916,0.476,4.084,1.497
		c1.199,1.046,1.895,2.354,2.082,3.927c0.202,1.68-0.221,3.19-1.268,4.533c-1.022,1.312-2.38,2.069-4.074,2.272
		c-0.661,0.079-1.335,0.054-2.022-0.082c-0.083-0.016-0.206-0.042-0.371-0.076l-0.006-0.04c-0.746-0.181-1.432-0.531-2.058-1.051
		l-0.04,0.005l-0.004-0.041c-0.115-0.066-0.22-0.148-0.312-0.245c-0.635-0.601-1.133-1.283-1.493-2.051
		c-0.129-0.174-0.259-0.253-0.392-0.237l-0.118,0.015c-0.175,0.103-0.285,0.317-0.326,0.646c-0.046,0.276-0.052,0.574-0.013,0.895
		c0.087,0.719,0.404,1.573,0.952,2.562c1.61,2.916,4.68,5.562,9.205,7.938c3.005,1.561,6.736,2.68,11.191,3.361
		c4.235,0.627,8.205,0.719,11.909,0.273l0.952-0.114c5.252-0.737,9.014-2.041,11.285-3.909c2.67-2.132,3.956-5.396,3.856-9.791
		c-0.015-0.565-0.054-1.114-0.117-1.648c-0.403-3.357-1.902-6.232-4.498-8.625c-1.505-1.36-3.017-2.327-4.534-2.903l-0.532-3.423
		c5.49,1.017,9.633,2.994,12.427,5.929c2.521,2.672,4.048,6.234,4.583,10.684l0.02,0.16c0.508,4.454,0.518,8.008,0.031,10.662
		c-1.269,6.641-4.939,11.272-11.012,13.894c-3.751,1.613-7.612,2.657-11.58,3.135c-4.259,0.51-8.649,0.375-13.172-0.406
		C120.536,607.754,113.522,603.756,108.891,597.362z"/>
	<path style="fill:#FFFFFF;" d="M122.874,549.768c-0.047-2.469,0.248-4.434,0.886-5.896c0.588-1.354,1.298-2.521,2.133-3.505
		c1.64-1.964,3.819-2.973,6.537-3.023c0.373-0.008,0.746-0.002,1.12,0.018c6.858,0.46,12.28,6.705,16.269,18.737
		c3.194-1.618,4.938-4.443,5.234-8.477c0.044-0.565,0.059-1.114,0.049-1.652c-0.066-3.436-1.229-6.46-3.492-9.074
		c-1.281-1.506-2.608-2.608-3.98-3.307l-0.126-4.468c5.069,1.7,9.083,4.617,12.041,8.749c2.712,3.841,4.111,8.057,4.2,12.646
		l0.002,0.121c0.013,2.041-0.387,4.129-1.199,6.265c-0.94,2.408-2.272,4.487-3.998,6.238c-3.319,3.394-7.55,5.14-12.692,5.237
		c-1.571,0.03-3.24-0.099-5.005-0.387c-7.619-1.251-12.892-4.532-15.818-9.846c-1.38-2.472-2.092-4.833-2.135-7.087L122.874,549.768
		z M145.497,557.953c-2.777-3.087-6.122-5.91-10.036-8.466c-2.591-1.669-4.423-2.68-5.495-3.036
		c-0.482-0.152-0.91-0.225-1.284-0.217c-0.904,0.018-1.427,0.592-1.564,1.722c-0.023,0.161-0.034,0.337-0.031,0.522
		c0.012,0.592,0.133,1.315,0.362,2.169c0.689,2.592,2.5,4.583,5.431,5.978c2.529,1.214,5.445,1.788,8.748,1.725
		c0.427-0.008,0.866-0.029,1.317-0.065C143.85,558.214,144.7,558.103,145.497,557.953z"/>
	<path style="fill:#FFFFFF;" d="M122.883,514.616c0.264,0.046,0.462,0.088,0.592,0.124c2.15,0.56,3.802,1.002,4.954,1.328
		c-0.848-0.842-1.679-1.924-2.49-3.248c-1.624-2.647-2.378-5.139-2.263-7.472l0.012-0.161c0.2-2.758,1.767-4.636,4.696-5.635
		c1.425-0.487,2.854-0.68,4.29-0.575c1.462,0.106,2.927,0.521,4.397,1.247c1.273,0.496,2.295,1.323,3.065,2.482
		c0.741,1.212,1.06,2.526,0.957,3.945c-0.129,1.767-0.849,3.223-2.161,4.365c-1.34,1.168-2.887,1.688-4.642,1.561
		c-1.355-0.099-2.561-0.603-3.617-1.514c-0.232-0.099-0.442-0.153-0.629-0.167c-0.397-0.029-0.705,0.151-0.92,0.539
		c-0.124,0.232-0.194,0.469-0.213,0.712c-0.065,0.909,0.54,1.963,1.815,3.158c0.824,0.786,1.697,1.456,2.62,2.007l30.729,7.276
		l-0.857,11.808l-24.236-5.635c-0.768-0.109-2.937-0.589-6.508-1.441c-1-0.207-1.991-0.346-2.976-0.418
		c-0.77-0.056-1.544-0.071-2.32-0.047c-3.566,0.172-5.435,1.437-5.605,3.792L122.883,514.616z"/>
	<path style="fill:#FFFFFF;" d="M125.288,495.354l0.64-4.423c-5.535-1.75-8.779-2.776-9.732-3.075
		c-0.772-0.247-1.54-0.427-2.306-0.536c-1.66-0.24-3.327-0.169-4.997,0.213c-1.199,0.287-2.165,0.637-2.898,1.046l0.83-5.739
		c0.519-3.586,2.287-5.771,5.309-6.555c1.399-0.368,2.877-0.438,4.433-0.215c0.766,0.111,1.547,0.293,2.345,0.543
		c2.987,0.947,5.883,1.867,8.688,2.76l0.61-4.223l5.468,1.562l-0.639,4.423l7.846,2.437l7.027,2.234
		c2.575,0.807,4.313,1.356,5.213,1.648c0.997,0.363,1.879,0.598,2.644,0.709c1.583,0.228,2.687-0.047,3.31-0.824
		c0.262-0.314,0.421-0.671,0.479-1.07c0.122-0.85-0.267-1.883-1.169-3.098c-1.062-1.401-2.783-2.816-5.161-4.244l0.623-4.59
		c8.123,3.969,12.664,8.407,13.624,13.319c0.171,0.865,0.178,1.844,0.02,2.933c-0.153,1.062-0.472,2.251-0.958,3.564
		c-1.296,3.555-3.488,5.408-6.579,5.559c-0.949,0.052-2.137-0.025-3.562-0.23c-3.427-0.495-8.235-1.691-14.423-3.59
		c-1.378-0.334-4.91-1.415-10.598-3.24l-0.615,4.265L125.288,495.354z"/>
	<path style="fill:#FFFFFF;" d="M125.825,457.304c0.942,1.417,1.245,2.981,0.907,4.693c-0.333,1.687-1.207,3.019-2.622,3.998
		c-1.436,0.948-2.991,1.257-4.664,0.926c-1.699-0.335-3.021-1.212-3.964-2.629c-0.962-1.448-1.277-3.016-0.945-4.701
		c0.338-1.712,1.226-3.041,2.662-3.989c1.415-0.979,2.973-1.302,4.672-0.967C123.544,454.966,124.863,455.855,125.825,457.304z
		 M158.056,455.212c7.81,4.331,12.06,8.947,12.75,13.843c0.125,0.874,0.08,1.863-0.139,2.97c-0.202,1.027-0.562,2.16-1.078,3.397
		c-1.47,3.46-3.736,5.174-6.8,5.144c-0.79,0.009-1.825-0.113-3.105-0.367c-3.764-0.743-9.716-2.588-17.852-5.534
		c-3.117-1.135-6.017-2.199-8.699-3.194l-3.491-1.305l2.215-11.219l12.919,4.725l6.824,2.578c2.484,0.901,4.165,1.534,5.044,1.899
		c0.957,0.379,1.814,0.645,2.572,0.795c1.568,0.31,2.669,0.102,3.3-0.621c0.277-0.301,0.452-0.636,0.524-1.005
		c0.172-0.868-0.15-1.917-0.968-3.146c-0.963-1.449-2.584-2.932-4.865-4.45L158.056,455.212z"/>
	<path style="fill:#FFFFFF;" d="M141.139,440.469c4.753,1.969,11.014,4.386,18.784,7.252c8.403,3.079,14.927,6.031,19.574,8.86
		c3.678,2.197,6.539,4.591,8.581,7.179c2.46,3.109,3.364,6.077,2.71,8.901l-0.09,0.352c-1.241,4.946-3.776,8.087-7.601,9.424
		l0.049-0.029l-0.136,0.049c-0.123,0.053-0.227,0.083-0.311,0.088c-1.073,0.339-2.168,0.369-3.278,0.09
		c-1.681-0.421-2.95-1.378-3.812-2.867c-0.889-1.496-1.119-3.091-0.695-4.783c0.427-1.692,1.38-2.975,2.863-3.847
		c1.464-0.905,3.034-1.147,4.715-0.726c1.653,0.416,2.919,1.342,3.794,2.78c0.393,0.513,0.757,0.812,1.094,0.896l0.076,0.021
		c0.363,0.09,0.6-0.086,0.711-0.528c0.51-2.03-2.199-4.428-8.127-7.189l-0.116-0.029c-1.188-0.298-9.541-2.756-25.058-7.373
		c-8.72-2.579-14.382-4.431-16.984-5.555l-0.854,3.563l-5.319-2.125l0.992-3.944c-1.298-0.63-2.718-1.374-4.262-2.232
		c-4.672-2.502-7.867-6.087-9.579-10.752c-1.481-4.053-1.689-8.201-0.624-12.445c0.195-0.781,0.434-1.564,0.715-2.353
		c1.271-3.639,3.695-5.852,7.272-6.643c2.065-0.45,4.026-0.441,5.888,0.026c1.343,0.338,2.363,1.092,3.058,2.263
		c0.714,1.204,0.9,2.482,0.562,3.837c-0.333,1.326-1.099,2.353-2.298,3.075c-1.172,0.729-2.43,0.926-3.774,0.587
		c-1.344-0.336-2.373-1.106-3.086-2.311c-0.689-1.197-0.867-2.459-0.533-3.787l0.029-0.117c-1.288,0.534-2.124,1.569-2.511,3.106
		c-0.229,0.91-0.297,2-0.203,3.269c0.112,1.191,0.72,2.604,1.82,4.235c1.462,2.168,3.633,4.027,6.511,5.58
		c1.084,0.605,2.479,1.287,4.184,2.048l0.824-3.28l5.319,2.125L141.139,440.469z"/>
	<path style="fill:#FFFFFF;" d="M136.7,416.496c0.791,1.507,0.932,3.095,0.419,4.762c-0.503,1.644-1.51,2.88-3.018,3.708
		c-1.525,0.794-3.104,0.942-4.734,0.441c-1.655-0.508-2.88-1.515-3.673-3.021c-0.809-1.541-0.962-3.132-0.458-4.773
		c0.512-1.669,1.531-2.9,3.057-3.696c1.509-0.828,3.091-0.989,4.747-0.48C134.67,413.937,135.891,414.957,136.7,416.496z
		 M168.976,417.723c7.322,5.109,11.076,10.136,11.26,15.079c0.037,0.882-0.11,1.86-0.441,2.938
		c-0.308,1.002-0.781,2.092-1.422,3.271c-1.816,3.289-4.247,4.762-7.291,4.417c-0.786-0.072-1.803-0.3-3.051-0.684
		c-3.67-1.125-9.399-3.57-17.19-7.338c-2.983-1.447-5.759-2.804-8.325-4.069l-3.337-1.656l3.354-10.933l12.365,6.025l6.523,3.266
		c2.379,1.152,3.985,1.954,4.821,2.407c0.914,0.476,1.74,0.827,2.479,1.055c1.527,0.469,2.644,0.375,3.347-0.28
		c0.307-0.271,0.515-0.585,0.624-0.945c0.26-0.847,0.047-1.923-0.64-3.229c-0.81-1.54-2.27-3.182-4.384-4.925L168.976,417.723z"/>
	<path style="fill:#FFFFFF;" d="M150.732,395.109c0.891-2.303,1.911-4.008,3.056-5.12c1.058-1.029,2.156-1.841,3.301-2.435
		c2.264-1.194,4.662-1.302,7.196-0.319c0.35,0.135,0.691,0.282,1.029,0.442c6.172,3.025,8.822,10.861,7.949,23.507
		c3.568-0.286,6.256-2.239,8.058-5.858c0.254-0.506,0.478-1.01,0.672-1.511c1.241-3.204,1.312-6.444,0.209-9.721
		c-0.613-1.879-1.424-3.403-2.429-4.57l1.578-4.182c4.046,3.499,6.653,7.718,7.822,12.663c1.054,4.583,0.751,9.014-0.908,13.294
		l-0.044,0.111c-0.762,1.894-1.925,3.675-3.486,5.344c-1.782,1.872-3.803,3.291-6.063,4.255c-4.358,1.881-8.935,1.893-13.73,0.033
		c-1.465-0.568-2.96-1.32-4.483-2.256c-6.577-4.046-10.211-9.082-10.904-15.109c-0.341-2.809-0.103-5.265,0.712-7.366
		L150.732,395.109z M168.562,411.262c-1.399-3.911-3.425-7.789-6.076-11.639c-1.764-2.526-3.075-4.157-3.934-4.893
		c-0.389-0.324-0.756-0.553-1.104-0.688c-0.846-0.327-1.546,0.005-2.103,0.999c-0.082,0.141-0.159,0.299-0.226,0.474
		c-0.214,0.551-0.377,1.266-0.488,2.144c-0.345,2.658,0.575,5.188,2.76,7.59c1.88,2.081,4.359,3.719,7.439,4.913
		c0.397,0.154,0.812,0.3,1.244,0.439C166.939,410.877,167.768,411.099,168.562,411.262z"/>
	<path style="fill:#FFFFFF;" d="M200.318,348.676c6.434,6.339,9.316,11.988,8.649,16.948c-0.115,0.816-0.423,1.714-0.92,2.694
		c-0.401,0.79-0.917,1.628-1.546,2.512c-1.946,2.716-4.149,4.08-6.607,4.096c1.607,2.954,1.53,6.166-0.233,9.636l-0.145,0.287
		c-2.636,4.955-6.958,6.93-12.964,5.926c-2.621-0.429-5.263-1.318-7.923-2.671c-1.972-1.002-3.96-2.267-5.961-3.796
		c-6.245-4.708-9.472-9.478-9.677-14.31c-0.088-2.001,0.45-4.152,1.617-6.449c0.255-0.503,0.547-1.017,0.874-1.543
		c0.97-1.614,2.73-2.964,5.282-4.046l0.719-0.267c-7.598-5.576-11.373-8.353-11.325-8.328l0.035,0.019
		c-0.652-0.482-1.322-0.898-2.011-1.248c-1.496-0.76-3.099-1.227-4.802-1.401c-1.229-0.111-2.262-0.079-3.1,0.098l2.627-5.169
		c1.641-3.231,4.024-4.746,7.148-4.543c1.407,0.113,2.812,0.525,4.215,1.237c0.688,0.351,1.382,0.778,2.082,1.283
		c1.813,1.313,4.314,3.126,7.503,5.438l11.273,8.165l5.902,4.354c2.182,1.589,3.65,2.667,4.41,3.232
		c0.829,0.662,1.589,1.169,2.276,1.519c1.427,0.724,2.559,0.818,3.399,0.281c0.349-0.214,0.606-0.488,0.778-0.824
		c0.4-0.79,0.369-1.904-0.095-3.346c-0.533-1.654-1.71-3.546-3.527-5.675L200.318,348.676z M191.656,373.404
		c-0.623-1.008-2.031-2.355-4.223-4.042c-2.478-1.949-5.192-3.78-8.148-5.494c-1.272-0.495-2.411-0.577-3.417-0.245
		c-0.981,0.345-1.746,1.056-2.294,2.132c-0.097,0.192-0.188,0.401-0.273,0.629c-0.673,1.796-0.065,3.895,1.821,6.298
		c1.722,2.141,4.14,4.002,7.251,5.582c0.713,0.362,1.462,0.713,2.246,1.051c2.521,1.039,4.646,0.766,6.381-0.824
		c0.397-0.369,0.705-0.771,0.925-1.201c0.194-0.382,0.323-0.783,0.387-1.203C192.463,375.14,192.245,374.246,191.656,373.404z"/>
	<path style="fill:#FFFFFF;" d="M245.537,286.754c5.098,7.331,6.877,13.348,5.337,18.046c-0.256,0.819-0.93,1.944-2.02,3.372
		l0.032,0.025l-0.081,0.04c-1.774,2.327-3.657,3.894-5.65,4.704c-2.593,1.027-5.086,0.628-7.479-1.198l-0.35-0.267
		c-1.879-1.535-8.154-8.025-18.825-19.475l-0.167-0.178l-4.786,6.275c6.688,7.093,14.982,15.901,24.885,26.425l-7.839,10.277
		l-30.786-32.396c-0.54-0.479-2.047-2.018-4.523-4.614c-0.856-0.855-1.676-1.582-2.459-2.181c-1.526-1.163-2.994-1.896-4.407-2.196
		c1.043,5.354,1.938,9.058,2.685,11.112c1.356,3.668,3.59,7.397,6.698,11.186c0.842,1.048,1.73,1.928,2.662,2.639
		c1.61,1.228,3.383,2.023,5.318,2.386c1.521,0.248,2.806,0.233,3.856-0.047c0.862,3.966,2.716,7.711,5.561,11.229
		c-5.709,0.103-10.703-1.479-14.982-4.743c-4.025-3.069-7.427-7.64-10.204-13.708c-2.877-6.245-4.65-12.509-5.32-18.794l3.149-4.129
		c1.96-1.208,4.294-2.026,7.003-2.459c4.412-0.686,8.248,0.215,11.511,2.704c0.742,0.564,1.445,1.203,2.11,1.912
		c0.902,0.926,1.389,1.432,1.458,1.517l4.761-6.243l-2.201-2.387l-11.527-12.237l7.668-10.052l10.53,11.172
		c1.156,1.119,2.334,2.387,3.53,3.807l11.164,11.856c3.34,3.528,5.511,5.824,6.508,6.889l1.133,1.219
		c0.489,0.543,0.957,0.983,1.402,1.323c1.294,0.986,2.348,1.25,3.165,0.794c0.269-0.133,0.492-0.315,0.672-0.552
		c0.504-0.661,0.667-1.752,0.486-3.273c-0.22-1.688-1.022-3.735-2.404-6.141L245.537,286.754z"/>
	<path style="fill:#FFFFFF;" d="M271.147,262.036c0.981,1.591,1.69,3.44,2.129,5.551c0.854,4.051,0.028,7.366-2.479,9.945
		l-0.281,0.288c-0.599,0.578-1.245,1.129-1.94,1.651c0.08,0.453,0.133,0.84,0.154,1.161c0.306,3.967-1.169,7.624-4.426,10.973
		l-0.337,0.346c-4.493,4.393-9.479,5.238-14.952,2.534c-2.186-1.077-4.282-2.591-6.288-4.542c-1.72-1.671-3.355-3.637-4.91-5.899
		c-4.475-6.521-5.99-12.243-4.547-17.168c0.603-2.11,1.868-4.156,3.796-6.139c0.43-0.442,0.897-0.887,1.404-1.329
		c1.688-1.24,2.901-1.989,3.636-2.25c3.354-1.118,6.818-0.896,10.39,0.667c2.242,0.983,4.346,2.43,6.313,4.344
		c1.376,1.337,2.649,2.856,3.82,4.556c1.574,2.28,2.854,4.48,3.841,6.6l0.254-0.203c0.169-0.136,0.318-0.271,0.449-0.406
		c1.217-1.249,1.72-2.799,1.513-4.65c-0.124-1.019-0.389-1.912-0.794-2.682L271.147,262.036z M258.264,283.655
		c0.733-0.448,1.343-0.923,1.829-1.423l0.168-0.174c-2.064-0.284-4.154-1.287-6.271-3.01c-0.381-0.296-0.725-0.592-1.03-0.89
		c-0.918-0.892-1.627-1.862-2.13-2.912c-0.676-1.37-0.907-2.68-0.691-3.932c0.086-0.814,0.427-1.605,1.024-2.373
		c0.131-0.171,0.271-0.335,0.42-0.49c0.468-0.48,0.975-0.848,1.521-1.104c0.544-0.293,0.855-0.402,0.933-0.328l-0.316-0.307
		c-0.744-0.724-1.621-1.333-2.629-1.826c-0.988-0.475-1.794-0.696-2.418-0.667c-1.02,0.057-2.035,0.604-3.046,1.644
		c-0.168,0.173-0.337,0.365-0.505,0.577c-1.346,1.611-1.528,3.941-0.552,6.988c0.935,2.707,2.378,5.007,4.326,6.902
		c0.268,0.26,0.534,0.501,0.802,0.724c1.87,1.594,3.629,2.573,5.277,2.941C256.304,284.314,257.399,284.199,258.264,283.655z
		 M256.674,272.505c1.049,0.833,2.124,1.447,3.225,1.844l-0.116-0.281c-0.714-1.405-1.76-2.835-3.137-4.286
		c-0.552-0.387-0.969-0.437-1.25-0.147l-0.112,0.114c-0.354,0.594,0.016,1.419,1.105,2.478L256.674,272.505z"/>
	<path style="fill:#FFFFFF;" d="M299.077,238.697c1.932,4.622,2.965,8.502,3.102,11.643c0.1,2.682-0.47,5.075-1.707,7.181
		c-0.489,0.875-1.205,1.71-2.144,2.512c-0.695,0.593-1.501,1.157-2.418,1.695c-3.076,1.853-5.865,1.954-8.366,0.305
		c-0.665-0.448-1.438-1.19-2.319-2.224c-2.128-2.494-4.844-6.673-8.151-12.537c-1.522-2.693-2.688-4.518-3.501-5.471l-0.183-0.214
		c-0.832-0.935-1.645-1.204-2.438-0.811c-0.14,0.085-0.271,0.179-0.394,0.284c-0.777,0.662-1.454,2.079-2.033,4.254l15.955,26.527
		l-8.211,7.002l-12.63-20.642c-0.463-0.585-1.631-2.408-3.501-5.471c-0.5-0.835-1.053-1.606-1.658-2.316
		c-0.501-0.588-1.044-1.141-1.627-1.66c-2.536-2.354-4.673-2.79-6.409-1.31l12.808-10.922c0.151,0.221,0.261,0.39,0.327,0.509
		l2.249,3.755c0.406-4.653,1.691-7.904,3.855-9.75c0.164-0.139,0.326-0.259,0.486-0.362c2.727-1.974,5.438-1.938,8.133,0.104
		c0.747,0.589,1.528,1.358,2.34,2.311c1.99,2.333,4.162,5.75,6.521,10.252c1.385,2.286,2.318,3.836,2.801,4.65
		c0.51,0.93,1.018,1.688,1.519,2.276c1.021,1.197,2.013,1.698,2.978,1.506c0.346-0.05,0.662-0.196,0.947-0.44
		c0.204-0.174,0.395-0.406,0.57-0.696c0.376-0.636,0.604-1.442,0.686-2.423c0.16-1.714-0.19-3.884-1.053-6.509L299.077,238.697z"/>
	<path style="fill:#FFFFFF;" d="M296.903,210.084c2.021-1.42,3.815-2.274,5.384-2.562c1.45-0.271,2.816-0.335,4.097-0.193
		c2.547,0.261,4.602,1.504,6.165,3.728c0.215,0.305,0.419,0.618,0.61,0.938c3.456,5.941,1.312,13.931-6.43,23.966
		c3.127,1.743,6.445,1.608,9.954-0.401c0.492-0.281,0.957-0.576,1.396-0.885c2.811-1.977,4.667-4.633,5.569-7.971
		c0.531-1.904,0.702-3.621,0.513-5.149l3.635-2.604c1.424,5.156,1.252,10.113-0.518,14.876c-1.668,4.397-4.379,7.915-8.135,10.555
		l-0.098,0.07c-1.685,1.152-3.64,1.988-5.864,2.511c-2.521,0.566-4.991,0.625-7.408,0.175c-4.668-0.854-8.482-3.385-11.439-7.591
		c-0.904-1.287-1.73-2.741-2.478-4.365c-3.227-7.015-3.456-13.222-0.688-18.619c1.275-2.527,2.836-4.438,4.681-5.735
		L296.903,210.084z M302.773,233.415c1.007-4.028,1.475-8.381,1.404-13.055c-0.065-3.081-0.251-5.164-0.557-6.253
		c-0.146-0.484-0.323-0.879-0.539-1.185c-0.521-0.742-1.288-0.854-2.303-0.336c-0.146,0.071-0.298,0.161-0.45,0.269
		c-0.484,0.339-1.016,0.845-1.596,1.513c-1.762,2.021-2.4,4.635-1.916,7.845c0.407,2.776,1.563,5.514,3.464,8.217
		c0.245,0.349,0.509,0.701,0.791,1.056C301.637,232.196,302.205,232.84,302.773,233.415z"/>
	<path style="fill:#FFFFFF;" d="M319.188,195.492c1.972-0.773,4.501-1.039,7.59-0.797c3.075,0.219,6.193,0.89,9.358,2.012
		c6.588,2.372,11.078,5.621,13.471,9.747c0.32,0.553,0.601,1.114,0.838,1.686c3.713,8.812,0.053,16.415-10.977,22.812l-0.104,0.061
		c-2.393,1.387-4.853,1.904-7.385,1.556c-1.668-0.203-3.127-0.713-4.376-1.528c-1.241-0.697-2.321-1.812-3.24-3.342l-0.061-0.104
		c-0.829-1.429-1.021-2.965-0.578-4.608c0.467-1.656,1.443-2.915,2.929-3.777c1.511-0.875,3.088-1.097,4.734-0.665
		c1.683,0.44,2.952,1.399,3.809,2.874c0.601,1.037,0.865,2.162,0.793,3.374l0.02,0.035c-0.019,0.288-0.054,0.602-0.106,0.939
		c-0.061,0.806,0.069,1.485,0.391,2.037c0.133,0.231,0.294,0.431,0.485,0.597c0.699,0.673,1.548,0.719,2.548,0.141
		c1.787-1.037,2.955-2.53,3.501-4.479c0.752-2.716,0.032-5.964-2.159-9.744l-0.341-0.588c-2.112-3.427-5.131-5.85-9.057-7.27
		c-1.963-0.71-3.715-1.08-5.252-1.113l1.884,11.197c-0.873,0.261-1.635,0.579-2.285,0.955c-0.744,0.432-1.319,0.935-1.73,1.512
		L319.188,195.492z"/>
	<path style="fill:#FFFFFF;" d="M341.021,182.821l4.01-1.974c-1.688-5.555-2.676-8.81-2.968-9.766
		c-0.232-0.777-0.519-1.511-0.86-2.204c-0.741-1.507-1.742-2.841-3.002-4.003c-0.916-0.825-1.749-1.426-2.502-1.798l5.202-2.561
		c3.252-1.601,6.055-1.377,8.409,0.672c1.095,0.946,1.989,2.124,2.683,3.535c0.342,0.694,0.635,1.44,0.879,2.241
		c0.908,2.997,1.787,5.906,2.635,8.726l3.83-1.886l1.802,5.394l-4.009,1.975l2.428,7.849l2.129,7.06
		c0.791,2.581,1.32,4.325,1.588,5.232c0.267,1.027,0.57,1.888,0.911,2.58c0.706,1.435,1.557,2.19,2.551,2.265
		c0.407,0.037,0.792-0.033,1.153-0.212c0.771-0.378,1.402-1.284,1.895-2.714c0.555-1.669,0.748-3.888,0.582-6.657l4.137-2.081
		c1.32,8.942,0.228,15.198-3.282,18.768c-0.617,0.631-1.42,1.188-2.407,1.675c-0.963,0.474-2.123,0.882-3.48,1.223
		c-3.665,0.943-6.435,0.183-8.305-2.282c-0.581-0.753-1.188-1.776-1.824-3.065c-1.529-3.108-3.261-7.751-5.195-13.926
		c-0.503-1.327-1.609-4.851-3.319-10.573l-3.865,1.902L341.021,182.821z"/>
	<path style="fill:#FFFFFF;" d="M380.66,164.632l4.196-1.537c-1.089-5.702-1.728-9.044-1.916-10.026
		c-0.148-0.796-0.355-1.557-0.622-2.282c-0.577-1.576-1.432-3.009-2.56-4.298c-0.824-0.918-1.589-1.604-2.297-2.053l5.444-1.995
		c3.402-1.247,6.166-0.727,8.291,1.559c0.986,1.059,1.751,2.324,2.291,3.8c0.267,0.727,0.479,1.501,0.637,2.321
		c0.585,3.078,1.15,6.064,1.695,8.957l4.008-1.469l1.22,5.555l-4.195,1.538l1.581,8.062l1.368,7.245
		c0.514,2.65,0.854,4.44,1.025,5.372c0.155,1.05,0.366,1.938,0.632,2.662c0.55,1.502,1.315,2.343,2.296,2.521
		c0.4,0.081,0.79,0.051,1.169-0.087c0.807-0.296,1.531-1.129,2.172-2.499c0.729-1.6,1.156-3.786,1.285-6.559l4.334-1.63
		c0.364,9.033-1.387,15.138-5.254,18.314c-0.681,0.562-1.538,1.031-2.571,1.41c-1.008,0.368-2.205,0.652-3.592,0.848
		c-3.743,0.548-6.417-0.502-8.016-3.15c-0.498-0.812-0.993-1.893-1.488-3.243c-1.191-3.253-2.422-8.053-3.688-14.398
		c-0.361-1.372-1.087-4.993-2.18-10.864l-4.046,1.481L380.66,164.632z"/>
	<path style="fill:#FFFFFF;" d="M447.221,170.062c0.06,1.869-0.245,3.826-0.916,5.875c-1.272,3.94-3.638,6.405-7.097,7.396
		l-0.387,0.109c-0.808,0.203-1.642,0.36-2.504,0.467c-0.156,0.434-0.304,0.796-0.443,1.085c-1.709,3.593-4.807,6.032-9.297,7.317
		l-0.464,0.134c-6.084,1.575-10.828-0.17-14.233-5.237c-1.361-2.022-2.426-4.378-3.195-7.067c-0.661-2.306-1.104-4.825-1.327-7.562
		c-0.639-7.882,0.893-13.601,4.595-17.156c1.572-1.53,3.686-2.677,6.344-3.437c0.594-0.171,1.221-0.321,1.881-0.456
		c2.083-0.235,3.507-0.283,4.273-0.143c3.467,0.698,6.36,2.614,8.681,5.746c1.456,1.966,2.563,4.27,3.318,6.907
		c0.528,1.845,0.877,3.797,1.047,5.854c0.233,2.76,0.25,5.307,0.051,7.635l0.321-0.05c0.214-0.034,0.41-0.075,0.591-0.128
		c1.678-0.479,2.887-1.575,3.625-3.283c0.4-0.945,0.615-1.853,0.646-2.721L447.221,170.062z M425.292,182.411
		c0.857-0.023,1.622-0.132,2.294-0.324l0.232-0.066c-1.65-1.274-2.964-3.185-3.945-5.731c-0.184-0.445-0.334-0.873-0.451-1.284
		c-0.352-1.229-0.485-2.424-0.398-3.586c0.094-1.522,0.545-2.775,1.354-3.754c0.48-0.665,1.169-1.181,2.069-1.549
		c0.199-0.085,0.4-0.158,0.608-0.216c0.645-0.186,1.269-0.253,1.868-0.203c0.618,0.017,0.943,0.077,0.973,0.179l-0.121-0.422
		c-0.285-1-0.745-1.964-1.372-2.893c-0.622-0.902-1.211-1.497-1.767-1.78c-0.914-0.459-2.067-0.489-3.46-0.09
		c-0.231,0.066-0.475,0.148-0.725,0.248c-1.969,0.73-3.287,2.66-3.955,5.789c-0.535,2.814-0.428,5.527,0.32,8.141
		c0.104,0.358,0.216,0.701,0.336,1.025c0.829,2.312,1.869,4.038,3.115,5.18C423.263,182.008,424.271,182.454,425.292,182.411z
		 M429.456,171.947c0.497,1.244,1.124,2.312,1.881,3.204l0.04-0.303c0.079-1.575-0.117-3.335-0.59-5.277
		c-0.287-0.61-0.623-0.861-1.012-0.751l-0.154,0.045c-0.602,0.338-0.692,1.238-0.274,2.697L429.456,171.947z"/>
	<path style="fill:#FFFFFF;" d="M512.074,160.5c-0.978,5.756-3.137,10.245-6.478,13.469c-0.746,0.762-1.651,1.544-2.717,2.344
		l-0.039,0.004l0.004,0.039l-0.04,0.006c-0.796,0.58-1.759,1.221-2.89,1.921c-0.378,0.233-0.729,0.464-1.053,0.69
		c-0.13,0.93-0.277,1.833-0.441,2.712c-0.935,5.214-1.848,8.612-2.736,10.196c-0.869,1.527-2.619,2.936-5.247,4.221
		c-2.198,1.046-4.147,1.698-5.846,1.958l-0.36,0.043c-4.771,0.579-8.388-0.591-10.851-3.514l-0.049-0.073
		c-0.094-0.098-0.172-0.182-0.235-0.255c-0.479-0.613-0.788-1.152-0.926-1.619c-0.079-0.205-0.129-0.387-0.147-0.545
		c-0.164-1.349,1.005-2.86,3.506-4.533c0.947-0.652,2.587-1.629,4.916-2.931c1.039-0.583,2.345-1.293,3.92-2.128
		c1.475-0.77,2.414-1.272,2.819-1.509l0.127-1.948c-1.475,0.099-3.301,0.092-5.478-0.02c-3.891-0.198-7.316-1.245-10.277-3.141
		c-3.078-1.961-5.366-4.663-6.865-8.104c-1.583-3.674-2.61-7.467-3.087-11.382c-0.51-4.206-0.387-8.543,0.368-13.009
		c1.554-9.262,5.487-16.168,11.803-20.719c2.858-2.064,5.834-3.286,8.925-3.662c1.173-0.141,2.358-0.165,3.561-0.068
		c0.344-0.068,0.688-0.124,1.035-0.166c3.864-0.469,6.821,0.286,8.874,2.265c1.584,1.472,2.538,3.529,2.859,6.175
		c0.037,0.317,0.064,0.65,0.079,0.996c0.029,0.238,0.032,0.48,0.008,0.725c0.021,1.527-0.463,2.874-1.458,4.042
		c-1.02,1.171-2.303,1.85-3.848,2.038c-1.679,0.202-3.176-0.205-4.489-1.227c-1.314-1.021-2.069-2.352-2.27-3.993
		c-0.079-0.661-0.039-1.323,0.124-1.987c0.017-0.082,0.04-0.219,0.071-0.412c0.209-0.723,0.561-1.396,1.054-2.02l0.034-0.044
		c0.071-0.089,0.152-0.193,0.247-0.312c0.572-0.633,1.242-1.116,2.013-1.452c0.173-0.127,0.253-0.258,0.237-0.391
		c-0.004-0.026-0.022-0.064-0.055-0.114c-0.073-0.152-0.275-0.262-0.607-0.329c-0.25-0.051-0.534-0.056-0.854-0.018
		c-0.719,0.087-1.56,0.404-2.521,0.95c-2.888,1.612-5.495,4.64-7.82,9.083c-3.418,6.589-4.617,14.088-3.597,22.5l0.149,1.23
		c0.718,5.013,1.879,8.684,3.486,11.01c1.911,2.829,4.761,4.35,8.545,4.56l1.008-22.104l-6.688,3.389l-1.359-5.513l20.218-8.212
		c-0.1,2.75-0.329,8.214-0.688,16.39c-0.354,8.444-0.557,13.233-0.608,14.366l0.004,1.369c3.905-2.138,6.664-5.693,8.277-10.668
		L512.074,160.5z M486.46,186.398c0.027-0.219,0.042-0.435,0.044-0.65c-0.361,0.366-0.893,0.9-1.591,1.603
		c-1.819,1.938-2.714,4.49-2.681,7.653c0.091,0.739,0.309,1.09,0.654,1.049C484.899,195.7,486.09,192.482,486.46,186.398z"/>
	<path style="fill:#FFFFFF;" d="M547.566,161.038c-0.428,1.82-1.229,3.633-2.406,5.438c-2.252,3.476-5.175,5.243-8.771,5.302
		l-0.402,0.008c-0.833-0.013-1.68-0.079-2.54-0.198c-0.263,0.379-0.499,0.688-0.71,0.931c-2.581,3.029-6.205,4.582-10.876,4.66
		l-0.482,0.008c-6.284-0.055-10.413-2.971-12.389-8.748c-0.789-2.306-1.208-4.856-1.255-7.654c-0.04-2.398,0.186-4.945,0.678-7.646
		c1.428-7.778,4.389-12.904,8.885-15.378c1.916-1.071,4.256-1.63,7.02-1.676c0.617-0.011,1.263,0.006,1.934,0.048
		c2.072,0.312,3.46,0.635,4.164,0.97c3.168,1.572,5.466,4.173,6.896,7.8c0.897,2.277,1.369,4.787,1.414,7.532
		c0.033,1.917-0.136,3.892-0.505,5.924c-0.492,2.726-1.135,5.188-1.931,7.388l0.323,0.034c0.215,0.023,0.415,0.032,0.604,0.029
		c1.744-0.028,3.195-0.772,4.353-2.23c0.631-0.81,1.073-1.63,1.328-2.461L547.566,161.038z M523.186,167.281
		c0.835,0.2,1.602,0.294,2.3,0.282l0.242-0.005c-1.263-1.657-2.037-3.843-2.324-6.557c-0.062-0.479-0.097-0.931-0.103-1.357
		c-0.021-1.278,0.159-2.468,0.544-3.567c0.485-1.446,1.246-2.539,2.281-3.275c0.636-0.517,1.436-0.837,2.399-0.959
		c0.215-0.03,0.429-0.048,0.644-0.052c0.672-0.011,1.291,0.086,1.858,0.289c0.592,0.177,0.89,0.32,0.892,0.425l-0.007-0.439
		c-0.018-1.039-0.209-2.087-0.575-3.147c-0.368-1.034-0.781-1.76-1.245-2.178c-0.764-0.681-1.869-1.009-3.318-0.985
		c-0.241,0.005-0.498,0.022-0.765,0.054c-2.091,0.194-3.864,1.717-5.319,4.564c-1.246,2.58-1.847,5.229-1.801,7.945
		c0.006,0.374,0.025,0.732,0.058,1.079c0.202,2.448,0.758,4.384,1.668,5.808C521.331,166.367,522.188,167.058,523.186,167.281z
		 M529.922,158.254c0.155,1.332,0.484,2.525,0.985,3.582l0.116-0.281c0.484-1.5,0.752-3.25,0.799-5.251
		c-0.119-0.664-0.38-0.993-0.782-0.985l-0.16,0.003c-0.669,0.171-0.991,1.016-0.965,2.533L529.922,158.254z"/>
	<path style="fill:#FFFFFF;" d="M582.648,164.053c-0.588,1.773-1.551,3.507-2.887,5.197c-2.555,3.259-5.626,4.756-9.213,4.491
		l-0.401-0.028c-0.828-0.088-1.666-0.23-2.513-0.427c-0.295,0.353-0.559,0.64-0.789,0.864c-2.844,2.782-6.594,4.002-11.252,3.659
		l-0.482-0.036c-6.252-0.621-10.104-3.896-11.549-9.828c-0.58-2.367-0.766-4.945-0.562-7.736c0.177-2.392,0.632-4.908,1.365-7.555
		c2.122-7.617,5.534-12.456,10.233-14.515c2.005-0.894,4.386-1.239,7.143-1.036c0.615,0.045,1.256,0.119,1.922,0.222
		c2.036,0.497,3.389,0.944,4.06,1.341c3.014,1.852,5.067,4.648,6.164,8.389c0.688,2.35,0.931,4.893,0.73,7.629
		c-0.142,1.913-0.487,3.865-1.037,5.855c-0.735,2.671-1.599,5.066-2.589,7.184l0.318,0.062c0.212,0.043,0.413,0.071,0.6,0.085
		c1.74,0.129,3.252-0.482,4.535-1.83c0.701-0.75,1.216-1.526,1.545-2.331L582.648,164.053z M557.805,168.073
		c0.814,0.274,1.569,0.437,2.266,0.487l0.241,0.019c-1.108-1.765-1.683-4.013-1.724-6.739c-0.019-0.483-0.012-0.938,0.019-1.362
		c0.094-1.275,0.382-2.442,0.864-3.503c0.614-1.397,1.471-2.416,2.566-3.057c0.681-0.458,1.505-0.704,2.478-0.74
		c0.216-0.011,0.431-0.008,0.645,0.008c0.669,0.049,1.278,0.201,1.825,0.454c0.574,0.229,0.858,0.398,0.851,0.505l0.032-0.439
		c0.076-1.036-0.021-2.098-0.29-3.188c-0.272-1.062-0.62-1.821-1.044-2.279c-0.698-0.747-1.77-1.174-3.216-1.28
		c-0.241-0.018-0.497-0.023-0.766-0.017c-2.1,0.006-4.003,1.362-5.71,4.068c-1.474,2.457-2.309,5.04-2.51,7.75
		c-0.027,0.373-0.04,0.731-0.038,1.079c-0.02,2.457,0.358,4.435,1.137,5.936C556.04,166.995,556.831,167.761,557.805,168.073z
		 M565.326,159.689c0.036,1.34,0.256,2.559,0.659,3.656l0.142-0.27c0.617-1.452,1.041-3.17,1.269-5.157
		c-0.059-0.673-0.289-1.022-0.69-1.053l-0.16-0.013c-0.681,0.11-1.078,0.923-1.189,2.438L565.326,159.689z"/>
	<path style="fill:#FFFFFF;" d="M622.393,171.096c-4.149,8.022-8.691,12.45-13.625,13.283c-0.812,0.131-1.761,0.104-2.846-0.08
		c-0.873-0.15-1.826-0.394-2.857-0.731c-3.17-1.056-5.126-2.755-5.869-5.099c-2.345,2.411-5.437,3.288-9.272,2.633l-0.318-0.054
		c-5.513-1.05-8.679-4.592-9.499-10.626c-0.367-2.63-0.301-5.416,0.202-8.357c0.373-2.18,0.992-4.453,1.859-6.819
		c2.647-7.359,6.246-11.854,10.8-13.481c1.885-0.679,4.099-0.801,6.639-0.366c0.557,0.095,1.133,0.22,1.733,0.378
		c1.829,0.447,3.64,1.729,5.429,3.846l0.469,0.606c3.074-8.908,4.606-13.336,4.598-13.283l-0.007,0.039
		c0.267-0.765,0.465-1.528,0.596-2.291c0.282-1.654,0.254-3.322-0.085-5.002c-0.258-1.205-0.595-2.183-1.012-2.93l5.716,0.978
		c3.571,0.609,5.726,2.437,6.456,5.481c0.311,1.378,0.333,2.841,0.067,4.39c-0.129,0.763-0.333,1.552-0.607,2.37
		c-0.718,2.122-1.708,5.047-2.971,8.777l-4.459,13.188l-2.409,6.927c-0.872,2.555-1.465,4.278-1.782,5.17
		c-0.387,0.988-0.646,1.863-0.773,2.625c-0.271,1.576-0.024,2.686,0.737,3.329c0.308,0.27,0.646,0.435,1.019,0.498
		c0.872,0.149,1.928-0.21,3.165-1.08c1.423-1.001,2.883-2.685,4.377-5.052L622.393,171.096z M596.207,170.149
		c0.778-0.894,1.648-2.638,2.609-5.23c1.129-2.942,2.072-6.079,2.833-9.409c0.096-1.363-0.163-2.475-0.778-3.336
		c-0.62-0.836-1.525-1.355-2.716-1.56c-0.212-0.036-0.439-0.061-0.681-0.076c-1.915-0.11-3.74,1.092-5.478,3.606
		c-1.533,2.278-2.594,5.139-3.182,8.579c-0.134,0.789-0.247,1.606-0.338,2.456c-0.247,2.715,0.646,4.665,2.677,5.85
		c0.471,0.271,0.945,0.446,1.422,0.528c0.422,0.07,0.844,0.077,1.265,0.013C594.788,171.435,595.577,170.962,596.207,170.149z"/>
	<path style="fill:#FFFFFF;" d="M657.182,181.27c-2.739,4.194-5.367,7.23-7.887,9.108c-2.163,1.591-4.463,2.464-6.899,2.625
		c-0.999,0.085-2.093-0.036-3.284-0.362c-0.88-0.242-1.8-0.592-2.76-1.048c-3.262-1.504-4.914-3.753-4.954-6.749
		c-0.003-0.802,0.176-1.857,0.535-3.168c0.869-3.161,2.798-7.756,5.79-13.787c1.373-2.774,2.225-4.765,2.557-5.972l0.074-0.27
		c0.306-1.216,0.071-2.038-0.699-2.472c-0.148-0.068-0.3-0.124-0.455-0.167c-0.985-0.27-2.539-0.033-4.663,0.71l-12.976,28.104
		l-10.406-2.856l9.977-22.047c0.223-0.713,1.076-2.703,2.558-5.972c0.41-0.882,0.737-1.772,0.984-2.672
		c0.204-0.745,0.356-1.504,0.458-2.278c0.521-3.422-0.318-5.435-2.518-6.037l16.23,4.453c-0.098,0.251-0.176,0.437-0.236,0.557
		l-1.843,3.972c4.077-2.278,7.489-3.042,10.233-2.289c0.207,0.056,0.396,0.123,0.571,0.198c3.165,1.145,4.66,3.406,4.483,6.784
		c-0.066,0.95-0.263,2.028-0.595,3.235c-0.811,2.956-2.416,6.672-4.814,11.154c-1.113,2.43-1.871,4.073-2.272,4.93
		c-0.482,0.945-0.826,1.79-1.03,2.536c-0.416,1.517-0.274,2.618,0.429,3.308c0.234,0.259,0.533,0.438,0.896,0.537
		c0.258,0.071,0.558,0.098,0.896,0.081c0.737-0.048,1.532-0.312,2.391-0.795c1.507-0.83,3.104-2.339,4.792-4.529L657.182,181.27z"/>
	<path style="fill:#FFFFFF;" d="M679.652,163.401c2.311,0.873,4.025,1.877,5.146,3.013c1.038,1.048,1.859,2.142,2.462,3.28
		c1.215,2.255,1.341,4.652,0.381,7.194c-0.132,0.349-0.277,0.693-0.434,1.033c-2.975,6.196-10.787,8.911-23.439,8.146
		c0.316,3.567,2.291,6.236,5.926,8.009c0.509,0.25,1.013,0.469,1.517,0.658c3.213,1.215,6.454,1.258,9.722,0.129
		c1.875-0.631,3.391-1.454,4.549-2.468l4.195,1.541c-3.463,4.076-7.662,6.72-12.597,7.931c-4.573,1.091-9.007,0.826-13.3-0.798
		l-0.113-0.043c-1.899-0.745-3.689-1.893-5.371-3.44c-1.887-1.767-3.323-3.776-4.309-6.027c-1.916-4.343-1.965-8.92-0.148-13.73
		c0.558-1.471,1.297-2.971,2.22-4.503c3.99-6.609,8.995-10.286,15.017-11.031c2.806-0.362,5.264-0.146,7.374,0.651L679.652,163.401z
		 M663.65,181.365c3.898-1.431,7.762-3.488,11.588-6.173c2.511-1.785,4.131-3.109,4.86-3.975c0.319-0.392,0.546-0.761,0.679-1.11
		c0.319-0.848-0.02-1.546-1.018-2.094c-0.142-0.081-0.3-0.157-0.476-0.222c-0.553-0.21-1.269-0.366-2.147-0.471
		c-2.661-0.322-5.183,0.619-7.565,2.823c-2.066,1.896-3.684,4.392-4.851,7.481c-0.151,0.398-0.295,0.814-0.429,1.248
		C664.021,179.74,663.808,180.57,663.65,181.365z"/>
	<path style="fill:#FFFFFF;" d="M704.272,173.654c1.748,1.196,3.388,3.141,4.922,5.832c1.544,2.668,2.74,5.625,3.587,8.875
		c1.736,6.782,1.569,12.322-0.501,16.619c-0.278,0.575-0.587,1.122-0.925,1.639c-5.209,8.021-13.556,9.261-25.04,3.725l-0.108-0.054
		c-2.491-1.2-4.302-2.945-5.433-5.236c-0.769-1.494-1.167-2.987-1.192-4.479c-0.12-1.419,0.195-2.938,0.945-4.559l0.053-0.107
		c0.717-1.488,1.88-2.51,3.489-3.066c1.634-0.543,3.223-0.441,4.771,0.305c1.572,0.757,2.642,1.938,3.209,3.543
		c0.579,1.641,0.5,3.229-0.241,4.765c-0.521,1.081-1.304,1.931-2.347,2.551l-0.018,0.036c-0.25,0.146-0.529,0.294-0.838,0.44
		c-0.702,0.4-1.189,0.891-1.468,1.466c-0.115,0.241-0.188,0.486-0.221,0.736c-0.164,0.957,0.274,1.686,1.314,2.188
		c1.862,0.896,3.752,1.024,5.671,0.381c2.671-0.9,4.955-3.319,6.852-7.256l0.295-0.613c1.651-3.671,1.962-7.529,0.933-11.575
		c-0.515-2.022-1.191-3.68-2.028-4.971l-8.207,7.846c-0.707-0.577-1.397-1.029-2.074-1.354c-0.775-0.374-1.515-0.567-2.223-0.584
		L704.272,173.654z"/>
	<path style="fill:#FFFFFF;" d="M734.643,189.142c1.642,1.339,3.114,3.412,4.418,6.223c1.317,2.787,2.264,5.835,2.838,9.143
		c1.165,6.903,0.537,12.411-1.885,16.519c-0.324,0.552-0.678,1.07-1.059,1.558c-5.856,7.559-14.278,8.101-25.263,1.627l-0.104-0.062
		c-2.382-1.403-4.04-3.293-4.977-5.67c-0.642-1.554-0.914-3.074-0.816-4.563c-0.002-1.424,0.439-2.911,1.322-4.464l0.061-0.103
		c0.84-1.423,2.083-2.345,3.733-2.765c1.672-0.406,3.249-0.173,4.729,0.7c1.503,0.885,2.472,2.152,2.902,3.798
		c0.44,1.684,0.229,3.259-0.636,4.729c-0.609,1.033-1.461,1.814-2.553,2.347l-0.021,0.033c-0.261,0.125-0.551,0.248-0.87,0.369
		c-0.731,0.342-1.261,0.788-1.584,1.339c-0.137,0.23-0.229,0.469-0.282,0.716c-0.243,0.939,0.134,1.703,1.129,2.288
		c1.779,1.05,3.652,1.335,5.619,0.854c2.735-0.677,5.212-2.896,7.432-6.662l0.345-0.585c1.951-3.521,2.582-7.34,1.893-11.458
		c-0.346-2.059-0.882-3.767-1.608-5.123l-8.832,7.136c-0.654-0.634-1.307-1.142-1.953-1.522c-0.74-0.438-1.462-0.692-2.166-0.767
		L734.643,189.142z"/>
	<path style="fill:#FFFFFF;" d="M812.131,218.24c0.436,3.052-0.852,7.172-3.861,12.363c-1.44-5.002-3.667-9.222-6.676-12.66
		c-0.284-0.339-0.578-0.619-0.883-0.84c-0.934-0.68-1.881-0.791-2.842-0.337l-2.359,2.288l-35.96,35.428l-10.39-7.553l31.528-31.386
		c0.481-0.572,1.985-2.115,4.509-4.628c0.761-0.635,1.451-1.334,2.075-2.1l0.305-0.422c0.956-1.313,1.093-2.301,0.411-2.961
		c-5.231-3.44-9.756-3.585-13.574-0.432c-1.135,0.922-2.071,1.89-2.808,2.902c-1.003,1.379-1.592,2.829-1.767,4.349
		c-0.175,1.29-0.052,2.353,0.372,3.185c-3.931,0.932-7.614,2.85-11.051,5.753c-0.231-5.57,0.922-10.102,3.459-13.593
		c0.925-1.271,2.033-2.409,3.328-3.412c4.788-3.667,9.908-5.414,15.357-5.241c2.732,0.077,4.979,0.524,6.74,1.343l15.275,11.104
		l-0.198,0.202L812.131,218.24z"/>
	<path style="fill:#FFFFFF;" d="M805.989,238.949c-0.197,0.18-0.351,0.312-0.46,0.394c-1.753,1.364-3.109,2.403-4.069,3.118
		c1.183-0.158,2.548-0.158,4.094,0.006c3.087,0.324,5.522,1.244,7.302,2.756l0.12,0.107c2.065,1.838,2.601,4.225,1.607,7.156
		c-0.48,1.428-1.198,2.68-2.156,3.753c-0.974,1.096-2.196,2.005-3.667,2.729c-1.17,0.707-2.448,1.014-3.838,0.919
		c-1.411-0.15-2.647-0.7-3.709-1.646c-1.325-1.178-2.04-2.636-2.146-4.372c-0.109-1.774,0.42-3.318,1.59-4.632
		c0.903-1.015,2.038-1.663,3.403-1.945c0.22-0.126,0.392-0.259,0.517-0.397c0.265-0.299,0.31-0.651,0.133-1.059
		c-0.109-0.24-0.255-0.441-0.435-0.602c-0.683-0.606-1.887-0.769-3.61-0.486c-1.127,0.175-2.189,0.461-3.188,0.855l-24.49,19.938
		l-8.842-7.873l19.233-15.788c0.553-0.541,2.256-1.969,5.105-4.283c0.773-0.667,1.488-1.368,2.145-2.104
		c0.514-0.577,0.997-1.181,1.45-1.812c2.037-2.932,2.173-5.184,0.409-6.755L805.989,238.949z"/>
	<path style="fill:#FFFFFF;" d="M843.65,277.814c-0.135,0.089-8.225,5.439-24.267,16.051l-0.117,0.108
		c-1.481,1.38-1.946,2.602-1.395,3.664c0.09,0.174,0.207,0.339,0.354,0.496c0.621,0.668,1.67,1.03,3.144,1.089
		c1.756,0.089,3.938-0.364,6.542-1.361l3.185,3.362c-4.571,2.167-8.433,3.377-11.581,3.633c-2.732,0.232-5.178-0.224-7.336-1.368
		c-0.781-0.408-1.684-1.163-2.709-2.264l-0.466-0.501l-0.03,0.027l-0.025-0.086c-1.99-2.292-2.951-4.459-2.886-6.502
		c0.099-1.302,0.643-2.651,1.634-4.052c-5.989-0.253-10.064-1.541-12.223-3.858c-0.128-0.138-0.246-0.284-0.355-0.439
		c-2.127-2.676-2.202-5.396-0.221-8.155c0.555-0.812,1.311-1.662,2.267-2.552c2.241-2.088,5.562-4.429,9.958-7.019
		c4.306-2.688,7.183-4.523,8.634-5.508c0.676-0.447,1.298-0.934,1.863-1.46c1.228-1.144,2.218-2.486,2.967-4.027
		c0.526-1.115,0.86-2.087,1-2.914l2.964,3.184c2.47,2.651,3.081,5.419,1.835,8.304c-0.613,1.453-1.642,2.851-3.086,4.194
		c-0.39,0.363-0.808,0.716-1.254,1.058c-1.727,1.352-3.643,2.714-5.749,4.09c-2.648,1.73-4.232,2.767-4.754,3.105
		c-2.761,1.727-4.59,3.009-5.487,3.844l-0.116,0.109c-0.9,0.91-1.135,1.733-0.703,2.47c0.088,0.175,0.197,0.33,0.324,0.468
		c0.824,0.883,2.477,1.563,4.959,2.04c0.467-0.398,0.923-0.749,1.368-1.054c1.043-0.716,4.352-2.989,9.923-6.82
		c0.935-0.796,5.652-3.998,14.157-9.605L843.65,277.814z"/>
	<path style="fill:#FFFFFF;" d="M847.222,282.071l2.79,3.49c5.061-2.843,8.026-4.511,8.897-5c0.709-0.395,1.363-0.833,1.969-1.315
		c1.311-1.049,2.397-2.313,3.261-3.793c0.609-1.072,1.016-2.016,1.219-2.83l3.62,4.529c2.263,2.83,2.647,5.614,1.154,8.356
		c-0.688,1.272-1.646,2.398-2.875,3.38c-0.604,0.484-1.27,0.93-1.998,1.341c-2.733,1.532-5.385,3.017-7.954,4.452l2.664,3.333
		l-4.879,2.923l-2.791-3.492l-7.143,4.061l-6.435,3.6c-2.351,1.329-3.938,2.222-4.769,2.678c-0.945,0.48-1.72,0.963-2.322,1.446
		c-1.25,0.998-1.805,1.99-1.663,2.978c0.051,0.406,0.203,0.766,0.455,1.08c0.536,0.671,1.555,1.092,3.059,1.267
		c1.749,0.182,3.958-0.106,6.627-0.865l2.923,3.592c-8.45,3.216-14.795,3.493-19.035,0.835c-0.748-0.467-1.466-1.131-2.153-1.989
		c-0.671-0.839-1.318-1.884-1.944-3.138c-1.71-3.374-1.563-6.242,0.441-8.6c0.61-0.729,1.479-1.543,2.602-2.441
		c2.705-2.163,6.866-4.854,12.481-8.072c1.187-0.777,4.389-2.616,9.608-5.518l-2.689-3.364L847.222,282.071z"/>
	<path style="fill:#FFFFFF;" d="M864.409,348.314c-8.686,2.59-15.052,2.393-19.099-0.598c-0.831-0.602-1.604-1.423-2.314-2.465
		c-0.516-0.754-1-1.625-1.451-2.617c-1.512-3.293-1.302-6.103,0.626-8.43c0.523-0.65,1.368-1.373,2.534-2.172
		c2.727-1.864,7.21-4.135,13.451-6.81c2.988-1.295,4.988-2.289,6-2.981l0.131-0.091c1.026-0.766,1.384-1.562,1.076-2.393
		c-0.048-0.163-0.116-0.312-0.207-0.444c-0.546-0.797-1.813-1.589-3.804-2.374l-28.632,13.29l-6.568-9.604l22.15-10.517
		c-0.021,0.015,8.268-3.915,24.866-11.788c0.735-0.34,1.422-0.728,2.061-1.165c1.384-0.947,2.563-2.129,3.535-3.539
		c0.709-1.039,1.185-1.949,1.424-2.732l3.274,4.787c2.061,3.014,2.274,5.875,0.643,8.585c-0.824,1.344-1.918,2.483-3.282,3.416
		c-0.571,0.391-1.186,0.744-1.839,1.062c-3.473,1.625-6.45,3.029-8.937,4.209l-3.751,1.736c4.422,0.943,7.428,2.577,9.02,4.904
		l0.295,0.432c1.72,2.987,1.392,5.716-0.985,8.188c-0.671,0.719-1.545,1.447-2.623,2.185c-2.552,1.745-6.21,3.547-10.973,5.406
		c-2.428,1.173-4.089,1.951-4.988,2.338c-0.979,0.409-1.786,0.833-2.425,1.269c-1.319,0.902-1.947,1.852-1.879,2.847
		c0.021,0.408,0.146,0.779,0.373,1.111c0.485,0.708,1.47,1.206,2.956,1.489c1.724,0.351,3.956,0.238,6.696-0.335L864.409,348.314z"
		/>
</g>
</svg>
