<?xml version="1.0" encoding="utf-8"?>
<!-- Generator: Adobe Illustrator 17.1.0, SVG Export Plug-In . SVG Version: 6.00 Build 0)  -->
<!DOCTYPE svg PUBLIC "-//W3C//DTD SVG 1.1//EN" "http://www.w3.org/Graphics/SVG/1.1/DTD/svg11.dtd">
<svg version="1.1" id="Layer_1" xmlns="http://www.w3.org/2000/svg" xmlns:xlink="http://www.w3.org/1999/xlink" x="0px" y="0px"
	 viewBox="0 0 444.444 600.968" style="enable-background:new 0 0 444.444 600.968;" xml:space="preserve">
<g>
	<path style="fill:#89B9BD;" d="M444.444,510.102c-148.149-97.778-296.296,97.776-444.444,0c0-74.074,0-148.149,0-222.223
		c148.148,97.778,296.295-97.777,444.444,0C444.444,361.953,444.444,436.028,444.444,510.102z"/>
	<g>
		<path style="fill:#89B9BD;" d="M231.055,0c-33.064,0-59.861,64.028-59.863,111.975c-0.003,44.362,22.951,80.929,52.571,86.148
			c-0.645,17.359-2.819,71.352-6.688,125.87c-6.849,96.476-21.756,193.416-10.833,247.079c1.391,6.829,6.275,29.554,23.637,29.554
			c18.837,0,24.034-22.331,25.612-29.554c11.682-53.516-3.748-150.547-10.838-247.079c-3.997-54.427-6.081-108.337-6.694-125.785
			c29.809-4.965,52.957-41.678,52.957-86.237C290.915,64.028,264.114,0.002,231.055,0z"/>
		<g>
			<path style="fill:#89B9BD;" d="M379.533,284.602l-0.387-0.069c3.987-18.262,52.134-239.876,43.013-244.208
				c-21.756-10.338-58.872,95.638-81.19,222.222c9.46,3.713,12.587,13.991,13.414,17.622l-1.047-0.186
				c-4.316-0.759-8.435,2.122-9.196,6.441c-0.76,4.315,2.115,8.429,6.426,9.199c-2.246,9.631-7.381,31.113-18.071,73.809
				c-23.5,93.819-42.94,143.242-41.506,197.986c0.187,6.966,1.055,30.192,18.148,33.209c18.555,3.272,27.548-17.821,30.358-24.657
				c20.797-50.674,18.683-103.985,28.457-200.283c4.449-43.798,7.122-65.712,8.416-75.514l0.405,0.071
				c4.316,0.764,8.435-2.122,9.199-6.441C386.735,289.483,383.852,285.364,379.533,284.602z"/>
		</g>
		<g>
			<path style="fill:#89B9BD;" d="M78.281,17.341c-5.532,0.975,15.536,123.583,15.536,123.583c0.67,3.807-1.871,7.439-5.682,8.112
				c-3.809,0.668-7.441-1.873-8.114-5.681c0,0-25.208-121.851-29.614-121.074c-4.713,0.831,16.289,123.422,16.289,123.422
				c0.676,3.811-1.866,7.441-5.677,8.114c-3.809,0.673-7.441-1.873-8.114-5.679c0,0-23.589-122.161-30.79-120.894
				C15.751,28.368,42.539,173.65,42.539,173.65c2.76,15.651,31.458,25.249,33.363,37.949c0.037,0.252,0.087,0.488,0.139,0.725
				c2.999,22.077,9.28,69.766,14.306,118.097c10.007,96.193,12.157,194.253,32.237,245.205c2.55,6.484,11.311,28.012,28.407,25
				c18.551-3.272,19.792-26.168,20.092-33.551c2.209-54.733-29.833-147.609-53.579-241.445
				c-12.099-47.817-22.585-95.482-27.175-116.819c-2.229-12.647,21.596-31.256,18.835-46.91
				C109.164,161.901,86.217,15.942,78.281,17.341z"/>
		</g>
	</g>
	<path style="fill:#8C9E74;" d="M444.444,510.102c-148.149,97.776-296.296-97.778-444.444,0c0-74.074,0-148.149,0-222.223
		c148.148-97.777,296.295,97.778,444.444,0C444.444,361.953,444.444,436.028,444.444,510.102z"/>
</g>
</svg>
